<svg xmlns="http://www.w3.org/2000/svg" data-name="Layer 2" viewBox="0 0 32 40" x="0px" y="0px"><path d="M17.98,11.2l-2,10c-.09,.48-.51,.8-.98,.8-.07,0-.13,0-.2-.02-.54-.11-.89-.64-.78-1.18l2-10c.11-.54,.63-.89,1.18-.78,.54,.11,.89,.64,.78,1.18Zm-6.27,.1c-.39-.39-1.02-.39-1.41,0l-3.29,3.29c-.78,.78-.78,2.05,0,2.83l3.29,3.29c.2,.2,.45,.29,.71,.29s.51-.1,.71-.29c.39-.39,.39-1.02,0-1.41l-3.29-3.29,3.29-3.29c.39-.39,.39-1.02,0-1.41ZM30,5V27c0,1.65-1.35,3-3,3H5c-1.65,0-3-1.35-3-3V5c0-1.65,1.35-3,3-3H27c1.65,0,3,1.35,3,3Zm-2,0c0-.55-.45-1-1-1H5c-.55,0-1,.45-1,1V27c0,.55,.45,1,1,1H27c.55,0,1-.45,1-1V5Zm-6.29,6.29c-.39-.39-1.02-.39-1.41,0s-.39,1.02,0,1.41l3.29,3.29-3.29,3.29c-.39,.39-.39,1.02,0,1.41,.2,.2,.45,.29,.71,.29s.51-.1,.71-.29l3.29-3.29c.78-.78,.78-2.05,0-2.83l-3.29-3.29Z"/></svg>